<svg xmlns="http://www.w3.org/2000/svg" xmlns:xlink="http://www.w3.org/1999/xlink" width="500" zoomAndPan="magnify" viewBox="0 0 375 374.999991" height="500" preserveAspectRatio="xMidYMid meet" version="1.0"><defs><g/></defs><path fill="#d22e1e" d="M 168.046875 182.144531 L 172.527344 169.511719 C 172.527344 169.511719 200.777344 171.882812 222.597656 185.402344 C 222.597656 185.402344 216.777344 124.84375 205.046875 109.203125 C 194.535156 95.1875 146.65625 71.824219 143.90625 74.984375 C 142.265625 76.867188 159.675781 98.402344 159.675781 98.402344 L 164.121094 93.957031 L 160.996094 100.40625 L 172.828125 115.273438 C 174.917969 117.898438 178.183594 119.296875 181.523438 118.996094 L 194.308594 117.847656 L 180.871094 121.347656 C 177.488281 122.230469 174.8125 124.816406 173.820312 128.167969 L 157.675781 182.710938 C 157.675781 182.710938 116.761719 177.933594 109.957031 191.546875 C 107.324219 196.808594 111.910156 216.925781 129.371094 223.132812 C 119.378906 217.097656 116.792969 203.246094 122.226562 198.757812 C 137.597656 186.058594 214.066406 205.636719 232.546875 226.09375 C 246.523438 241.570312 243.441406 272.660156 195.195312 263.125 C 190.234375 262.144531 185.1875 260.648438 180.164062 258.757812 C 214.890625 277.820312 257.621094 283.574219 265.050781 250.152344 C 267.667969 238.386719 261.222656 225.746094 248.703125 215.269531 C 242.589844 210.15625 215.523438 188.613281 168.046875 182.144531 " fill-opacity="1" fill-rule="nonzero"/><g fill="#ffffff" fill-opacity="1"><g transform="translate(46.231936, 260.072419)"><g><path d="M 4.042969 -44.234375 C 3.269531 -43.757812 2.4375 -42.390625 2.4375 -40.609375 C 2.4375 -38.050781 3.449219 -36.148438 5.113281 -35.019531 L 5.054688 -6.71875 C 5.054688 -4.757812 4.339844 -2.378906 3.269531 -0.773438 L 2.675781 0.117188 L 22 0.117188 L 21.402344 -0.773438 C 20.332031 -2.378906 19.621094 -4.757812 19.621094 -6.71875 L 19.621094 -10.640625 L 21.820312 -10.640625 C 22.175781 -10.640625 23.484375 -10.640625 23.839844 -10.640625 C 36.207031 -10.640625 43.757812 -15.578125 43.757812 -26.277344 C 43.757812 -36.980469 36.265625 -41.914062 23.839844 -41.914062 C 23.246094 -41.914062 23.484375 -41.914062 21.820312 -41.914062 C 20.035156 -41.679688 17.121094 -41.378906 14.148438 -41.378906 C 9.988281 -41.378906 5.707031 -41.976562 4.042969 -44.234375 Z M 19.679688 -38.40625 L 20.75 -38.40625 C 25.921875 -38.46875 28.894531 -35.078125 28.894531 -26.277344 C 28.894531 -17.480469 25.921875 -14.089844 20.75 -14.089844 L 19.621094 -14.089844 L 19.5625 -34.542969 C 19.5625 -36.503906 19.621094 -37.695312 19.679688 -38.40625 Z M 19.679688 -38.40625 "/></g></g></g><g fill="#ffffff" fill-opacity="1"><g transform="translate(89.394644, 260.072419)"><g><path d="M 4.042969 -44.234375 C 3.269531 -43.757812 2.4375 -42.390625 2.4375 -40.609375 C 2.4375 -38.050781 3.449219 -36.148438 5.113281 -35.019531 L 5.054688 -6.71875 C 5.054688 -4.757812 4.339844 -2.378906 3.269531 -0.773438 L 2.675781 0.117188 L 22 0.117188 L 21.402344 -0.773438 C 20.332031 -2.378906 19.621094 -4.757812 19.621094 -6.71875 L 19.621094 -15.578125 C 29.015625 -13.675781 21.761719 -0.296875 35.910156 0.832031 C 41.976562 1.308594 46.433594 -1.011719 47.265625 -3.625 C 42.570312 -3.625 41.144531 -10.285156 40.964844 -14.921875 C 38.941406 -14.269531 37.101562 -14.03125 35.375 -14.03125 C 31.988281 -14.03125 29.132812 -14.984375 26.933594 -15.816406 C 37.457031 -16.46875 43.757812 -20.632812 43.757812 -28.835938 C 43.757812 -37.753906 36.265625 -41.914062 23.839844 -41.914062 C 23.246094 -41.914062 23.484375 -41.914062 21.820312 -41.914062 C 20.035156 -41.679688 17.121094 -41.378906 14.148438 -41.378906 C 9.988281 -41.378906 5.707031 -41.976562 4.042969 -44.234375 Z M 19.796875 -39.003906 L 20.75 -39.003906 C 25.921875 -39.003906 28.894531 -36.207031 28.894531 -28.835938 C 28.894531 -21.464844 25.921875 -18.609375 20.75 -18.609375 L 19.5625 -18.609375 L 19.5625 -34.542969 C 19.5625 -37.160156 19.621094 -38.347656 19.796875 -39.003906 Z M 19.796875 -39.003906 "/></g></g></g><g fill="#ffffff" fill-opacity="1"><g transform="translate(136.065057, 260.072419)"><g><path d="M 44.175781 -20.929688 C 44.117188 -34.722656 36.328125 -42.808594 23.007812 -42.75 C 22.296875 -42.75 21.640625 -42.75 20.988281 -42.6875 C 18.964844 -42.628906 16.410156 -42.332031 13.914062 -42.332031 C 10.582031 -42.332031 7.371094 -42.867188 5.765625 -45.066406 C 4.996094 -44.589844 4.101562 -43.222656 4.101562 -41.378906 C 4.101562 -39.0625 5.054688 -37.277344 6.480469 -36.089844 C 3.390625 -32.402344 1.722656 -27.230469 1.722656 -20.867188 C 1.722656 -7.132812 9.691406 0.953125 22.949219 1.011719 C 36.328125 1.011719 44.175781 -6.898438 44.175781 -20.929688 Z M 16.589844 -20.929688 C 16.589844 -33.175781 18.191406 -39.835938 23.007812 -39.835938 C 27.765625 -39.835938 29.3125 -33.828125 29.3125 -20.867188 C 29.3125 -7.96875 27.765625 -1.960938 22.949219 -1.960938 C 18.191406 -1.960938 16.589844 -8.621094 16.589844 -20.929688 Z M 16.589844 -20.929688 "/></g></g></g><g fill="#ffffff" fill-opacity="1"><g transform="translate(181.903143, 260.072419)"><g><path d="M 22.117188 -42.214844 C 20.332031 -41.558594 18.074219 -41.261719 15.753906 -41.261719 C 11.535156 -41.261719 7.195312 -42.273438 5.589844 -44.234375 C 4.816406 -43.757812 3.925781 -42.390625 3.925781 -40.609375 C 3.925781 -38.050781 4.996094 -36.148438 6.660156 -35.019531 L 4.816406 -6.71875 C 4.695312 -4.757812 4.042969 -2.378906 2.972656 -0.773438 L 2.4375 0.117188 L 11.476562 0.117188 L 10.941406 -0.773438 C 9.871094 -2.378906 8.976562 -4.757812 9.097656 -6.71875 L 10.523438 -29.90625 L 17.300781 -8.859375 C 18.667969 -4.636719 21.761719 -2.082031 25.625 -2.082031 C 29.429688 -2.140625 31.570312 -4.339844 31.988281 -6.300781 L 39.121094 -30.796875 L 40.546875 -6.71875 C 40.667969 -4.757812 39.835938 -2.378906 38.765625 -0.773438 L 38.171875 0.117188 L 57.492188 0.117188 L 56.957031 -0.773438 C 55.828125 -2.378906 55.234375 -4.757812 55.113281 -6.71875 L 53.273438 -34.542969 C 53.152344 -36.503906 53.867188 -38.941406 54.816406 -40.609375 L 55.53125 -41.855469 C 53.332031 -41.558594 49.941406 -41.144531 46.554688 -41.144531 C 43.519531 -41.144531 40.488281 -41.5 38.171875 -42.628906 L 30.558594 -16.46875 C 28.003906 -23.78125 25.683594 -31.035156 22.117188 -42.214844 Z M 22.117188 -42.214844 "/></g></g></g><g fill="#ffffff" fill-opacity="1"><g transform="translate(241.831538, 260.072419)"><g><path d="M 4.042969 -44.234375 C 3.269531 -43.757812 2.4375 -42.390625 2.4375 -40.609375 C 2.4375 -38.050781 3.449219 -36.148438 5.113281 -35.019531 L 5.054688 -6.71875 C 5.054688 -4.757812 4.339844 -2.378906 3.269531 -0.773438 L 2.675781 0.117188 L 22 0.117188 L 21.402344 -0.773438 C 20.332031 -2.378906 19.621094 -4.757812 19.621094 -6.71875 L 19.621094 -10.640625 L 21.820312 -10.640625 C 22.175781 -10.640625 23.484375 -10.640625 23.839844 -10.640625 C 36.207031 -10.640625 43.757812 -15.578125 43.757812 -26.277344 C 43.757812 -36.980469 36.265625 -41.914062 23.839844 -41.914062 C 23.246094 -41.914062 23.484375 -41.914062 21.820312 -41.914062 C 20.035156 -41.679688 17.121094 -41.378906 14.148438 -41.378906 C 9.988281 -41.378906 5.707031 -41.976562 4.042969 -44.234375 Z M 19.679688 -38.40625 L 20.75 -38.40625 C 25.921875 -38.46875 28.894531 -35.078125 28.894531 -26.277344 C 28.894531 -17.480469 25.921875 -14.089844 20.75 -14.089844 L 19.621094 -14.089844 L 19.5625 -34.542969 C 19.5625 -36.503906 19.621094 -37.695312 19.679688 -38.40625 Z M 19.679688 -38.40625 "/></g></g></g><g fill="#ffffff" fill-opacity="1"><g transform="translate(284.994246, 260.072419)"><g><path d="M 29.132812 -6.71875 L 29.132812 -35.199219 C 29.132812 -36.207031 29.3125 -37.277344 29.667969 -38.347656 L 34.1875 -38.347656 C 34.363281 -32.878906 37.457031 -27.824219 42.511719 -28.777344 C 40.964844 -31.273438 40.964844 -38.765625 42.273438 -41.914062 L 1.425781 -41.914062 C 2.792969 -38.765625 2.792969 -31.273438 1.25 -28.777344 C 6.242188 -27.824219 9.394531 -32.878906 9.570312 -38.347656 L 14.03125 -38.347656 C 14.386719 -37.277344 14.566406 -36.207031 14.566406 -35.199219 L 14.566406 -6.71875 C 14.566406 -4.757812 13.851562 -2.378906 12.722656 -0.773438 L 12.1875 0 L 31.511719 0 L 30.976562 -0.773438 C 29.847656 -2.378906 29.132812 -4.757812 29.132812 -6.71875 Z M 29.132812 -6.71875 "/></g></g></g><g fill="#ffffff" fill-opacity="1"><g transform="translate(118.505574, 293.51792)"><g><path d="M 31.03125 -4.964844 C 34.121094 -13.375 32.101562 -18.84375 34.121094 -20.953125 C 33.882812 -20.925781 31.980469 -20.597656 30.257812 -20.597656 C 28.890625 -20.597656 27.640625 -20.804688 27.3125 -21.460938 C 26.988281 -21.222656 26.78125 -20.539062 26.867188 -19.644531 C 27.046875 -18.277344 28.148438 -17.058594 29.15625 -16.792969 C 31.296875 -15.425781 29.632812 -2.972656 26.628906 -2.40625 C 26.273438 -2.347656 25.945312 -2.972656 25.710938 -4.21875 C 25.351562 -6.332031 23.628906 -15.007812 23.300781 -16.703125 C 22.738281 -19.882812 20.597656 -21.101562 17.714844 -21.101562 C 15.871094 -21.101562 13.671875 -20.417969 13.492188 -19.320312 C 15.574219 -19.320312 16.019531 -15.871094 16.40625 -13.640625 C 16.464844 -13.40625 16.675781 -12.246094 16.972656 -10.847656 C 16.167969 -6.777344 14.890625 -2.40625 13.730469 -2.40625 C 13.375 -2.4375 13.046875 -2.972656 12.808594 -4.21875 C 12.453125 -6.332031 10.730469 -15.007812 10.402344 -16.703125 C 9.839844 -19.882812 7.699219 -21.101562 4.816406 -21.101562 C 3 -21.101562 0.773438 -20.417969 0.59375 -19.320312 C 2.675781 -19.320312 3.121094 -15.871094 3.507812 -13.640625 C 3.625 -12.957031 5.261719 -4.964844 5.320312 -4.667969 C 6.152344 -1.039062 7.9375 0.445312 11.207031 0.445312 C 15.515625 0.445312 16.882812 -2.585938 17.921875 -6.152344 C 18.070312 -5.320312 18.191406 -4.726562 18.21875 -4.667969 C 19.050781 -1.039062 20.835938 0.445312 24.105469 0.445312 C 27.402344 0.445312 29.722656 -1.367188 31.03125 -4.964844 Z M 31.03125 -4.964844 "/></g></g></g><g fill="#ffffff" fill-opacity="1"><g transform="translate(153.215743, 293.51792)"><g><path d="M 10.046875 -3.359375 L 10.015625 -17.269531 C 10.015625 -18.25 10.3125 -19.46875 10.789062 -20.300781 L 11.144531 -20.925781 C 10.285156 -20.804688 8.855469 -20.65625 7.371094 -20.65625 C 5.289062 -20.65625 3.121094 -20.953125 2.257812 -22.113281 C 1.871094 -21.875 1.457031 -21.191406 1.457031 -20.300781 C 1.457031 -19.023438 1.960938 -18.070312 2.792969 -17.507812 L 2.765625 -3.359375 C 2.765625 -2.378906 2.40625 -1.1875 1.871094 -0.386719 L 1.574219 0.0585938 L 11.234375 0.0585938 L 10.9375 -0.386719 C 10.402344 -1.1875 10.046875 -2.378906 10.046875 -3.359375 Z M 10.046875 -3.359375 "/></g></g></g><g fill="#ffffff" fill-opacity="1"><g transform="translate(165.905157, 293.51792)"><g><path d="M 19.945312 -0.03125 C 19.230469 -1.574219 19.230469 -5.320312 20.0625 -6.570312 C 17.386719 -7.074219 15.722656 -4.546875 15.632812 -1.785156 L 9.390625 -1.8125 L 18.902344 -17.417969 C 20.179688 -19.527344 19.378906 -20.953125 16.910156 -20.953125 L 2.109375 -20.953125 C 2.824219 -19.378906 2.824219 -15.632812 1.992188 -14.386719 C 4.667969 -13.910156 6.300781 -16.4375 6.421875 -19.171875 L 11.652344 -19.171875 L 1.605469 -3.476562 C 0.265625 -1.398438 1.039062 0 3.507812 0 L 8.292969 0 L 8.292969 -0.03125 Z M 19.945312 -0.03125 "/></g></g></g><g fill="#ffffff" fill-opacity="1"><g transform="translate(186.94523, 293.51792)"><g><path d="M 4.519531 -3.269531 L 5.261719 -5.527344 L 12.484375 -5.527344 L 13.226562 -3.359375 C 13.523438 -2.378906 13.582031 -1.1875 13.34375 -0.386719 L 13.226562 0.0585938 L 22.886719 0.0585938 L 22.410156 -0.386719 C 21.578125 -1.1875 20.804688 -2.378906 20.476562 -3.359375 L 15.753906 -17.445312 C 15.425781 -18.425781 15.308594 -19.644531 15.484375 -20.476562 L 15.605469 -21.101562 C 13.613281 -20.835938 8.441406 -20.328125 6.300781 -22.292969 C 6.003906 -22.054688 5.796875 -21.371094 6.121094 -20.476562 C 6.390625 -19.792969 6.746094 -19.199219 7.191406 -18.726562 L 2.019531 -3.269531 C 1.695312 -2.347656 1.070312 -1.21875 0.445312 -0.476562 L 0 0.0585938 L 4.875 0.0585938 L 4.726562 -0.265625 C 4.28125 -1.160156 4.191406 -2.347656 4.519531 -3.269531 Z M 8.917969 -16.464844 L 11.917969 -7.3125 L 5.855469 -7.3125 Z M 8.917969 -16.464844 "/></g></g></g><g fill="#ffffff" fill-opacity="1"><g transform="translate(209.827793, 293.51792)"><g><path d="M 2.019531 -22.113281 C 1.632812 -21.875 1.21875 -21.191406 1.21875 -20.300781 C 1.21875 -19.023438 1.722656 -18.070312 2.554688 -17.507812 L 2.527344 -3.359375 C 2.527344 -2.378906 2.167969 -1.1875 1.632812 -0.386719 L 1.335938 0.0585938 L 10.996094 0.0585938 L 10.699219 -0.386719 C 10.164062 -1.1875 9.808594 -2.378906 9.808594 -3.359375 L 9.808594 -7.789062 C 14.503906 -6.835938 10.878906 -0.148438 17.953125 0.417969 C 20.984375 0.652344 23.210938 -0.503906 23.628906 -1.8125 C 21.28125 -1.8125 20.566406 -5.140625 20.476562 -7.460938 C 19.46875 -7.132812 18.546875 -7.015625 17.683594 -7.015625 C 15.992188 -7.015625 14.5625 -7.488281 13.464844 -7.90625 C 18.726562 -8.234375 21.875 -10.3125 21.875 -14.414062 C 21.875 -18.875 18.128906 -20.953125 11.917969 -20.953125 C 11.621094 -20.953125 11.738281 -20.953125 10.90625 -20.953125 C 10.015625 -20.835938 8.558594 -20.6875 7.074219 -20.6875 C 4.992188 -20.6875 2.851562 -20.984375 2.019531 -22.113281 Z M 9.898438 -19.496094 L 10.371094 -19.496094 C 12.957031 -19.496094 14.445312 -18.101562 14.445312 -14.414062 C 14.445312 -10.730469 12.957031 -9.304688 10.371094 -9.304688 L 9.777344 -9.304688 L 9.777344 -17.269531 C 9.777344 -18.578125 9.808594 -19.171875 9.898438 -19.496094 Z M 9.898438 -19.496094 "/></g></g></g><g fill="#ffffff" fill-opacity="1"><g transform="translate(233.156118, 293.51792)"><g><path d="M 11.292969 0 C 17.507812 0 22.46875 -3.328125 22.46875 -10.492188 C 22.46875 -17 18.277344 -21.074219 12.898438 -21.074219 C 12.394531 -21.074219 11.859375 -21.042969 11.324219 -20.953125 C 10.253906 -20.804688 8.589844 -20.566406 6.953125 -20.566406 C 4.933594 -20.566406 2.914062 -20.925781 2.019531 -22.144531 C 1.632812 -21.90625 1.21875 -21.191406 1.21875 -20.300781 C 1.21875 -19.023438 1.722656 -18.070312 2.554688 -17.507812 L 2.527344 -3.359375 C 2.527344 -2.378906 2.167969 -1.1875 1.605469 -0.386719 L 1.335938 0 Z M 9.839844 -2.347656 C 9.808594 -2.617188 9.808594 -2.941406 9.808594 -3.359375 L 9.777344 -17.269531 C 9.777344 -17.863281 9.777344 -18.277344 9.777344 -18.636719 C 9.808594 -18.992188 10.074219 -19.230469 10.460938 -19.230469 L 10.90625 -19.230469 C 13.433594 -19.230469 15.039062 -16.734375 15.039062 -10.492188 C 15.039062 -4.21875 13.433594 -1.695312 10.9375 -1.722656 L 10.523438 -1.722656 C 10.136719 -1.722656 9.867188 -1.960938 9.839844 -2.347656 Z M 9.839844 -2.347656 "/></g></g></g></svg>